<svg xmlns="http://www.w3.org/2000/svg" xmlns:xlink="http://www.w3.org/1999/xlink" width="50" zoomAndPan="magnify" viewBox="0 0 37.5 37.499999" height="50" preserveAspectRatio="xMidYMid meet" version="1.0"><defs><clipPath id="80a6e4d803"><path d="M 3.699219 3.699219 L 33.304688 3.699219 L 33.304688 33.304688 L 3.699219 33.304688 Z M 3.699219 3.699219 " clip-rule="nonzero"/></clipPath></defs><g clip-path="url(#80a6e4d803)"><path fill="#000000" d="M 18.503906 3.699219 C 10.328125 3.699219 3.699219 10.328125 3.699219 18.503906 C 3.699219 26.679688 10.328125 33.304688 18.503906 33.304688 C 26.679688 33.304688 33.304688 26.679688 33.304688 18.503906 C 33.304688 10.328125 26.679688 3.699219 18.503906 3.699219 Z M 18.503906 32.183594 C 10.949219 32.183594 4.820312 26.058594 4.820312 18.503906 C 4.820312 10.949219 10.949219 4.820312 18.503906 4.820312 C 26.058594 4.820312 32.183594 10.949219 32.183594 18.503906 C 32.183594 26.058594 26.058594 32.183594 18.503906 32.183594 Z M 18.503906 32.183594 " fill-opacity="1" fill-rule="nonzero"/></g><path fill="#000000" d="M 16.765625 25.757812 C 16.394531 25.792969 16.097656 25.835938 15.800781 25.851562 C 14.113281 25.929688 12.859375 25.261719 12.101562 23.710938 C 11.859375 23.214844 11.550781 22.75 11.230469 22.300781 C 11.035156 22.03125 10.765625 21.816406 10.515625 21.59375 L 10.511719 21.589844 C 10.359375 21.453125 10.425781 21.199219 10.628906 21.164062 C 10.867188 21.125 11.089844 21.167969 11.308594 21.222656 C 11.984375 21.394531 12.421875 21.878906 12.769531 22.453125 C 13.554688 23.753906 14.90625 24.296875 16.371094 23.910156 C 16.617188 23.84375 16.726562 23.738281 16.78125 23.46875 C 16.84375 23.152344 16.929688 22.839844 17.023438 22.523438 C 17.082031 22.324219 17.058594 22.136719 16.953125 21.960938 C 16.851562 21.78125 16.699219 21.671875 16.5 21.625 L 16.488281 21.621094 C 14.972656 21.257812 13.660156 20.582031 12.816406 19.195312 C 12.363281 18.453125 12.140625 17.636719 12.152344 16.785156 C 12.164062 15.820312 12.25 14.851562 12.363281 13.890625 C 12.441406 13.214844 12.753906 12.617188 13.238281 12.132812 C 13.410156 11.960938 13.421875 11.820312 13.339844 11.601562 C 13.007812 10.703125 13.066406 9.800781 13.363281 8.902344 C 13.445312 8.648438 13.566406 8.609375 13.808594 8.6875 C 14.558594 8.925781 15.121094 9.414062 15.613281 10 L 15.617188 10.003906 C 15.746094 10.15625 15.90625 10.261719 16.09375 10.316406 C 16.285156 10.371094 16.472656 10.367188 16.664062 10.308594 C 18.222656 9.796875 20.589844 9.789062 22.0625 10.296875 C 22.25 10.359375 22.441406 10.363281 22.636719 10.308594 C 22.828125 10.257812 22.988281 10.152344 23.117188 10 L 23.121094 9.992188 C 23.613281 9.40625 24.179688 8.921875 24.929688 8.683594 C 25.183594 8.605469 25.289062 8.664062 25.367188 8.910156 C 25.664062 9.8125 25.710938 10.707031 25.394531 11.613281 C 25.351562 11.742188 25.351562 11.964844 25.429688 12.042969 C 26.105469 12.726562 26.402344 13.578125 26.476562 14.496094 C 26.546875 15.382812 26.625 16.289062 26.542969 17.167969 C 26.328125 19.464844 24.933594 20.800781 22.8125 21.464844 C 22.632812 21.519531 22.449219 21.566406 22.257812 21.613281 C 22.050781 21.660156 21.898438 21.777344 21.796875 21.964844 C 21.691406 22.152344 21.675781 22.347656 21.746094 22.546875 C 22.035156 23.382812 21.992188 24.277344 21.984375 25.167969 C 21.984375 25.371094 21.984375 25.574219 21.984375 25.78125 C 21.984375 26.121094 21.917969 26.449219 21.785156 26.765625 C 21.65625 27.082031 21.46875 27.359375 21.226562 27.601562 C 20.984375 27.84375 20.707031 28.027344 20.390625 28.160156 C 20.074219 28.289062 19.746094 28.355469 19.402344 28.355469 L 19.347656 28.355469 C 19.003906 28.355469 18.675781 28.289062 18.359375 28.160156 C 18.042969 28.027344 17.761719 27.839844 17.523438 27.597656 C 17.28125 27.355469 17.09375 27.078125 16.960938 26.761719 C 16.832031 26.445312 16.765625 26.117188 16.765625 25.773438 Z M 16.765625 25.757812 " fill-opacity="1" fill-rule="nonzero"/></svg>