<svg xmlns="http://www.w3.org/2000/svg" xmlns:xlink="http://www.w3.org/1999/xlink" width="50" zoomAndPan="magnify" viewBox="0 0 37.5 37.499999" height="50" preserveAspectRatio="xMidYMid meet" version="1.0"><defs><clipPath id="ab93f91aad"><path d="M 5.53125 3.699219 L 31.433594 3.699219 L 31.433594 33.304688 L 5.53125 33.304688 Z M 5.53125 3.699219 " clip-rule="nonzero"/></clipPath></defs><g clip-path="url(#ab93f91aad)"><path fill="#e44d26" d="M 7.882812 30.277344 L 5.523438 3.785156 L 31.441406 3.785156 L 29.082031 30.273438 L 18.464844 33.21875 Z M 7.882812 30.277344 " fill-opacity="1" fill-rule="nonzero"/></g><path fill="#f16529" d="M 27.058594 28.589844 L 29.078125 5.953125 L 18.484375 5.953125 L 18.484375 30.96875 Z M 27.058594 28.589844 " fill-opacity="1" fill-rule="nonzero"/><path fill="#ebebeb" d="M 18.472656 9.203125 L 10.347656 9.203125 L 11.222656 19.027344 L 18.484375 19.027344 L 18.484375 15.777344 L 14.191406 15.777344 L 13.894531 12.453125 L 18.484375 12.453125 L 18.484375 9.203125 Z M 18.484375 24.207031 L 18.46875 24.210938 L 14.855469 23.234375 L 14.625 20.640625 L 11.367188 20.640625 L 11.820312 25.742188 L 18.46875 27.582031 L 18.484375 27.578125 Z M 18.484375 24.207031 " fill-opacity="1" fill-rule="nonzero"/><path fill="#ffffff" d="M 18.472656 19.027344 L 22.46875 19.027344 L 22.101562 23.242188 L 18.480469 24.21875 L 18.480469 27.597656 L 25.132812 25.753906 L 26.023438 15.777344 L 18.484375 15.777344 Z M 26.523438 10.074219 L 26.601562 9.203125 L 18.46875 9.203125 L 18.46875 12.449219 L 26.308594 12.449219 L 26.371094 11.71875 Z M 26.523438 10.074219 " fill-opacity="1" fill-rule="nonzero"/></svg>