<svg xmlns="http://www.w3.org/2000/svg" xmlns:xlink="http://www.w3.org/1999/xlink" width="50" zoomAndPan="magnify" viewBox="0 0 37.5 37.499999" height="50" preserveAspectRatio="xMidYMid meet" version="1.0"><defs><clipPath id="adc75520f2"><path d="M 3.699219 3.699219 L 33.304688 3.699219 L 33.304688 33.304688 L 3.699219 33.304688 Z M 3.699219 3.699219 " clip-rule="nonzero"/></clipPath></defs><g clip-path="url(#adc75520f2)"><path fill="#eee400" d="M 26.390625 30.984375 C 23.808594 30.984375 22.136719 29.753906 21.324219 28.144531 L 23.585938 26.832031 C 24.183594 27.804688 24.957031 28.519531 26.332031 28.519531 C 27.480469 28.519531 28.21875 27.945312 28.21875 27.148438 C 28.21875 25.953125 26.621094 25.484375 25.496094 25.003906 C 23.488281 24.148438 22.15625 23.074219 22.15625 20.808594 C 22.15625 18.722656 23.746094 17.132812 26.230469 17.132812 C 28 17.132812 29.273438 17.75 30.183594 19.359375 L 28.019531 20.75 C 27.542969 19.894531 27.027344 19.558594 26.230469 19.558594 C 25.414062 19.558594 24.898438 20.074219 24.898438 20.75 C 24.898438 21.585938 25.414062 21.921875 26.609375 22.4375 C 29.109375 23.511719 31 24.351562 31 27.109375 C 31 29.613281 29.035156 30.984375 26.390625 30.984375 Z M 19.984375 26.792969 C 19.984375 29.671875 18.207031 31.195312 15.742188 31.195312 C 13.519531 31.195312 12.183594 30.34375 11.527344 28.863281 L 11.488281 28.863281 L 13.753906 27.28125 C 14.191406 28.058594 14.582031 28.605469 15.535156 28.605469 C 16.453125 28.605469 17.023438 28.144531 17.023438 26.753906 L 17.023438 17.023438 L 19.984375 17.023438 Z M 3.699219 33.304688 L 33.304688 33.304688 L 33.304688 3.699219 L 3.699219 3.699219 Z M 3.699219 33.304688 " fill-opacity="1" fill-rule="evenodd"/></g></svg>