<svg xmlns="http://www.w3.org/2000/svg" xmlns:xlink="http://www.w3.org/1999/xlink" width="50" zoomAndPan="magnify" viewBox="0 0 37.5 37.499999" height="50" preserveAspectRatio="xMidYMid meet" version="1.0"><defs><clipPath id="a485d10c87"><path d="M 11.769531 3.699219 L 25.089844 3.699219 L 25.089844 30 L 11.769531 30 Z M 11.769531 3.699219 " clip-rule="nonzero"/></clipPath><clipPath id="cb6fabf630"><path d="M 17 29 L 20 29 L 20 33.304688 L 17 33.304688 Z M 17 29 " clip-rule="nonzero"/></clipPath></defs><g clip-path="url(#a485d10c87)"><path fill="#689f38" d="M 25.089844 19.847656 C 25.089844 11.101562 18.429688 3.699219 18.429688 3.699219 C 18.429688 3.699219 11.769531 11.101562 11.769531 19.847656 C 11.769531 27.046875 16.277344 28.777344 17.875 29.164062 L 18.429688 8.410156 L 18.984375 29.164062 C 20.582031 28.777344 25.089844 27.046875 25.089844 19.847656 Z M 25.089844 19.847656 " fill-opacity="1" fill-rule="nonzero"/></g><g clip-path="url(#cb6fabf630)"><path fill="#689f38" d="M 17.875 29.164062 L 17.761719 33.304688 L 19.09375 33.304688 L 18.984375 29.164062 C 18.640625 29.246094 18.429688 29.269531 18.429688 29.269531 C 18.429688 29.269531 18.21875 29.246094 17.875 29.164062 Z M 17.875 29.164062 " fill-opacity="1" fill-rule="nonzero"/></g></svg>