<svg xmlns="http://www.w3.org/2000/svg" xmlns:xlink="http://www.w3.org/1999/xlink" width="50" zoomAndPan="magnify" viewBox="0 0 37.5 37.499999" height="50" preserveAspectRatio="xMidYMid meet" version="1.0"><defs><clipPath id="59add5b9fc"><path d="M 5.441406 6 L 30 6 L 30 31 L 5.441406 31 Z M 5.441406 6 " clip-rule="nonzero"/></clipPath></defs><g clip-path="url(#59add5b9fc)"><path fill="#000000" d="M 23.511719 8.363281 C 15.667969 3.710938 5.699219 9.390625 5.613281 18.5625 C 5.527344 27.519531 14.925781 33.304688 22.753906 29.363281 L 14.207031 16.683594 L 14.207031 24.53125 C 14.207031 25.402344 12.558594 25.402344 12.558594 24.53125 L 12.558594 14.011719 C 12.558594 13.320312 13.828125 13.265625 14.1875 13.863281 L 23.929688 28.6875 C 31.246094 23.933594 31.144531 12.890625 23.511719 8.363281 Z M 22.410156 23.214844 L 20.753906 20.664062 L 20.753906 13.6875 C 20.753906 13.035156 22.410156 13.035156 22.410156 13.6875 Z M 22.410156 23.214844 " fill-opacity="1" fill-rule="nonzero"/></g></svg>