<svg xmlns="http://www.w3.org/2000/svg" xmlns:xlink="http://www.w3.org/1999/xlink" width="50" zoomAndPan="magnify" viewBox="0 0 37.5 37.499999" height="50" preserveAspectRatio="xMidYMid meet" version="1.0"><defs><clipPath id="a51a811eb8"><path d="M 3.699219 12.339844 L 33.304688 12.339844 L 33.304688 24.925781 L 3.699219 24.925781 Z M 3.699219 12.339844 " clip-rule="nonzero"/></clipPath></defs><path fill="#c53735" d="M 16.859375 16.003906 L 18.503906 16.003906 L 18.503906 19.425781 L 16.859375 19.425781 Z M 16.859375 16.003906 " fill-opacity="1" fill-rule="nonzero"/><g clip-path="url(#a51a811eb8)"><path fill="#c53735" d="M 33.304688 12.582031 L 3.699219 12.582031 L 3.699219 22.84375 L 11.925781 22.84375 L 11.925781 24.554688 L 18.503906 24.554688 L 18.503906 22.84375 L 33.304688 22.84375 Z M 11.925781 21.136719 L 10.277344 21.136719 L 10.277344 16.003906 L 8.636719 16.003906 L 8.636719 21.132812 L 5.34375 21.132812 L 5.34375 14.292969 L 11.921875 14.292969 L 11.921875 21.136719 Z M 20.148438 21.136719 L 16.859375 21.136719 L 16.859375 22.84375 L 13.570312 22.84375 L 13.570312 14.292969 L 20.148438 14.292969 Z M 31.660156 21.136719 L 30.015625 21.136719 L 30.015625 16.003906 L 28.371094 16.003906 L 28.371094 21.132812 L 26.726562 21.132812 L 26.726562 16.003906 L 25.082031 16.003906 L 25.082031 21.132812 L 21.792969 21.132812 L 21.792969 14.292969 L 31.660156 14.292969 Z M 31.660156 21.136719 " fill-opacity="1" fill-rule="nonzero"/></g></svg>