<svg xmlns="http://www.w3.org/2000/svg" xmlns:xlink="http://www.w3.org/1999/xlink" width="50" zoomAndPan="magnify" viewBox="0 0 37.5 37.499999" height="50" preserveAspectRatio="xMidYMid meet" version="1.0"><defs><clipPath id="cd6e830efb"><path d="M 3.699219 5 L 33.304688 5 L 33.304688 32 L 3.699219 32 Z M 3.699219 5 " clip-rule="nonzero"/></clipPath></defs><path fill="#53c1de" d="M 21.148438 18.351562 C 21.148438 16.949219 19.964844 15.8125 18.503906 15.8125 C 17.042969 15.8125 15.859375 16.949219 15.859375 18.351562 C 15.859375 19.753906 17.042969 20.890625 18.503906 20.890625 C 19.964844 20.890625 21.148438 19.753906 21.148438 18.351562 Z M 21.148438 18.351562 " fill-opacity="1" fill-rule="nonzero"/><g clip-path="url(#cd6e830efb)"><path fill="#53c1de" d="M 27.089844 13.636719 C 27.648438 11.457031 28.347656 7.414062 25.875 6.042969 C 23.414062 4.679688 20.207031 7.292969 18.515625 8.863281 C 16.828125 7.308594 13.535156 4.707031 11.0625 6.082031 C 8.601562 7.449219 9.363281 11.425781 9.933594 13.617188 C 7.636719 14.242188 3.699219 15.59375 3.699219 18.351562 C 3.699219 21.097656 7.632812 22.566406 9.914062 23.191406 C 9.34375 25.398438 8.621094 29.316406 11.085938 30.679688 C 13.566406 32.054688 16.851562 29.515625 18.558594 27.929688 C 20.261719 29.507812 23.433594 32.0625 25.898438 30.695312 C 28.367188 29.320312 27.722656 25.332031 27.152344 23.128906 C 29.367188 22.5 33.304688 21.066406 33.304688 18.351562 C 33.304688 15.621094 29.347656 14.257812 27.089844 13.636719 Z M 26.808594 21.960938 C 26.433594 20.820312 25.929688 19.609375 25.308594 18.355469 C 25.898438 17.132812 26.386719 15.9375 26.75 14.804688 C 28.40625 15.265625 32.042969 16.320312 32.042969 18.351562 C 32.042969 20.398438 28.554688 21.460938 26.808594 21.960938 Z M 25.261719 29.644531 C 23.425781 30.664062 20.695312 28.21875 19.4375 27.058594 C 20.273438 26.179688 21.105469 25.160156 21.921875 24.03125 C 23.351562 23.90625 24.703125 23.707031 25.929688 23.4375 C 26.332031 24.996094 27.109375 28.617188 25.261719 29.644531 Z M 11.71875 29.628906 C 9.878906 28.609375 10.71875 25.113281 11.140625 23.492188 C 12.355469 23.75 13.695312 23.933594 15.128906 24.046875 C 15.949219 25.152344 16.808594 26.171875 17.671875 27.0625 C 16.605469 28.054688 13.5625 30.652344 11.71875 29.628906 Z M 4.964844 18.351562 C 4.964844 16.296875 8.578125 15.25 10.273438 14.789062 C 10.644531 15.945312 11.128906 17.15625 11.714844 18.378906 C 11.121094 19.621094 10.628906 20.851562 10.253906 22.023438 C 8.636719 21.578125 4.964844 20.40625 4.964844 18.351562 Z M 11.699219 7.132812 C 13.542969 6.105469 16.40625 8.605469 17.628906 9.730469 C 16.769531 10.617188 15.921875 11.628906 15.109375 12.730469 C 13.714844 12.851562 12.382812 13.050781 11.160156 13.320312 C 10.699219 11.550781 9.855469 8.15625 11.699219 7.132812 Z M 22.824219 14.050781 C 23.769531 14.164062 24.675781 14.316406 25.523438 14.503906 C 25.269531 15.289062 24.953125 16.109375 24.578125 16.953125 C 24.035156 15.960938 23.453125 14.992188 22.824219 14.050781 Z M 18.515625 10.597656 C 19.101562 11.207031 19.683594 11.882812 20.257812 12.621094 C 19.09375 12.566406 17.925781 12.566406 16.761719 12.617188 C 17.335938 11.890625 17.925781 11.210938 18.515625 10.597656 Z M 12.441406 16.949219 C 12.074219 16.113281 11.757812 15.285156 11.5 14.488281 C 12.34375 14.308594 13.246094 14.160156 14.183594 14.046875 C 13.554688 14.988281 12.972656 15.957031 12.441406 16.949219 Z M 14.210938 22.738281 C 13.242188 22.636719 12.328125 22.496094 11.484375 22.320312 C 11.742188 21.507812 12.066406 20.664062 12.441406 19.808594 C 12.984375 20.8125 13.574219 21.789062 14.210938 22.738281 Z M 18.550781 26.1875 C 17.953125 25.566406 17.355469 24.878906 16.769531 24.140625 C 17.945312 24.183594 19.117188 24.183594 20.289062 24.132812 C 19.714844 24.886719 19.132812 25.574219 18.550781 26.1875 Z M 24.589844 19.765625 C 24.984375 20.628906 25.316406 21.46875 25.582031 22.265625 C 24.726562 22.453125 23.796875 22.605469 22.820312 22.71875 C 23.453125 21.757812 24.042969 20.773438 24.589844 19.765625 Z M 21.214844 22.867188 C 19.421875 22.988281 17.617188 22.988281 15.824219 22.875 C 14.804688 21.445312 13.894531 19.941406 13.113281 18.378906 C 13.890625 16.820312 14.792969 15.320312 15.808594 13.890625 C 17.601562 13.761719 19.410156 13.761719 21.203125 13.890625 C 22.210938 15.320312 23.109375 16.816406 23.90625 18.363281 C 23.117188 19.917969 22.214844 21.425781 21.214844 22.867188 Z M 25.242188 7.097656 C 27.089844 8.121094 26.269531 11.75 25.863281 13.332031 C 24.636719 13.058594 23.300781 12.855469 21.90625 12.730469 C 21.09375 11.617188 20.25 10.605469 19.402344 9.730469 C 20.644531 8.582031 23.414062 6.085938 25.242188 7.097656 Z M 25.242188 7.097656 " fill-opacity="1" fill-rule="evenodd"/></g></svg>