<svg xmlns="http://www.w3.org/2000/svg" xmlns:xlink="http://www.w3.org/1999/xlink" width="50" zoomAndPan="magnify" viewBox="0 0 37.5 37.499999" height="50" preserveAspectRatio="xMidYMid meet" version="1.0"><defs><clipPath id="b789b21c98"><path d="M 3.714844 9.460938 L 33.292969 9.460938 L 33.292969 26.902344 L 3.714844 26.902344 Z M 3.714844 9.460938 " clip-rule="nonzero"/></clipPath></defs><g clip-path="url(#b789b21c98)"><path fill="#38bdf8" d="M 18.503906 9.460938 C 14.558594 9.460938 12.09375 11.398438 11.109375 15.273438 C 12.585938 13.335938 14.3125 12.609375 16.285156 13.09375 C 17.410156 13.371094 18.214844 14.171875 19.105469 15.058594 C 20.554688 16.507812 22.230469 18.179688 25.898438 18.179688 C 29.839844 18.179688 32.304688 16.242188 33.292969 12.367188 C 31.8125 14.304688 30.089844 15.03125 28.117188 14.546875 C 26.992188 14.269531 26.1875 13.46875 25.296875 12.582031 C 23.847656 11.132812 22.167969 9.460938 18.503906 9.460938 Z M 11.109375 18.179688 C 7.164062 18.179688 4.699219 20.117188 3.714844 23.992188 C 5.191406 22.054688 6.917969 21.328125 8.890625 21.8125 C 10.015625 22.089844 10.820312 22.890625 11.710938 23.78125 C 13.160156 25.226562 14.835938 26.902344 18.503906 26.902344 C 22.445312 26.902344 24.910156 24.960938 25.898438 21.085938 C 24.417969 23.023438 22.695312 23.75 20.722656 23.265625 C 19.597656 22.992188 18.792969 22.1875 17.902344 21.300781 C 16.453125 19.855469 14.773438 18.179688 11.109375 18.179688 Z M 11.109375 18.179688 " fill-opacity="1" fill-rule="evenodd"/></g></svg>