<svg xmlns="http://www.w3.org/2000/svg" xmlns:xlink="http://www.w3.org/1999/xlink" width="80" zoomAndPan="magnify" viewBox="0 0 60 60" height="80" preserveAspectRatio="xMidYMid meet" version="1.0"><defs><clipPath id="85662d1f7b"><path d="M 0 11.113281 L 60 11.113281 L 60 39 L 0 39 Z M 0 11.113281 " clip-rule="nonzero"/></clipPath><clipPath id="05d94ee928"><path d="M 38 31 L 52 31 L 52 48.613281 L 38 48.613281 Z M 38 31 " clip-rule="nonzero"/></clipPath></defs><g clip-path="url(#85662d1f7b)"><path fill="currentColor" d="M 55.484375 11.109375 L 4.515625 11.109375 C 2.085938 11.109375 0.109375 13.074219 0.109375 15.484375 L 0.109375 33.84375 C 0.109375 36.257812 2.085938 38.222656 4.515625 38.222656 L 36.246094 38.222656 C 36.195312 37.253906 36.148438 36.273438 36.109375 35.292969 L 4.515625 35.292969 C 3.714844 35.292969 3.058594 34.644531 3.058594 33.84375 L 3.058594 15.484375 C 3.058594 14.691406 3.714844 14.042969 4.515625 14.042969 L 55.484375 14.042969 C 56.285156 14.042969 56.941406 14.691406 56.941406 15.484375 L 56.941406 33.84375 C 56.941406 34.644531 56.285156 35.292969 55.484375 35.292969 L 51.925781 35.292969 C 52.589844 36.175781 52.730469 37.078125 52.742188 37.660156 C 52.746094 37.804688 52.742188 38 52.710938 38.222656 L 55.484375 38.222656 C 57.914062 38.222656 59.890625 36.257812 59.890625 33.84375 L 59.890625 15.484375 C 59.890625 13.074219 57.914062 11.109375 55.484375 11.109375 " fill-opacity="1" fill-rule="nonzero"/></g><path fill="currentColor" d="M 18.710938 22.113281 L 17.722656 22.113281 C 17.558594 22.113281 17.414062 22.222656 17.367188 22.382812 L 16.585938 25.117188 C 16.550781 25.246094 16.515625 25.375 16.476562 25.507812 C 16.4375 25.375 16.394531 25.238281 16.351562 25.097656 L 15.5 22.375 C 15.453125 22.21875 15.3125 22.113281 15.148438 22.113281 L 14.308594 22.113281 C 14.148438 22.113281 14.007812 22.21875 13.957031 22.371094 L 13.0625 25.152344 C 13.019531 25.285156 12.980469 25.414062 12.941406 25.542969 C 12.910156 25.417969 12.875 25.289062 12.839844 25.160156 L 12.117188 22.386719 C 12.074219 22.226562 11.925781 22.113281 11.757812 22.113281 L 10.738281 22.113281 C 10.621094 22.113281 10.511719 22.171875 10.441406 22.261719 C 10.371094 22.355469 10.351562 22.476562 10.382812 22.585938 L 12.039062 28.035156 C 12.085938 28.191406 12.230469 28.296875 12.394531 28.296875 L 13.300781 28.296875 C 13.460938 28.296875 13.597656 28.195312 13.648438 28.046875 L 14.535156 25.457031 C 14.589844 25.296875 14.640625 25.132812 14.695312 24.960938 C 14.742188 25.117188 14.792969 25.277344 14.84375 25.441406 L 15.683594 28.042969 C 15.730469 28.195312 15.871094 28.296875 16.035156 28.296875 L 16.941406 28.296875 C 17.101562 28.296875 17.242188 28.195312 17.292969 28.042969 L 19.0625 22.59375 C 19.097656 22.480469 19.078125 22.359375 19.007812 22.265625 C 18.9375 22.171875 18.828125 22.113281 18.710938 22.113281 " fill-opacity="1" fill-rule="nonzero"/><path fill="currentColor" d="M 28.046875 22.113281 L 27.058594 22.113281 C 26.894531 22.113281 26.75 22.222656 26.703125 22.378906 L 25.921875 25.117188 C 25.886719 25.242188 25.851562 25.375 25.8125 25.507812 C 25.773438 25.375 25.730469 25.238281 25.6875 25.097656 L 24.835938 22.375 C 24.789062 22.21875 24.648438 22.113281 24.484375 22.113281 L 23.644531 22.113281 C 23.484375 22.113281 23.34375 22.21875 23.292969 22.371094 L 22.394531 25.152344 C 22.355469 25.285156 22.316406 25.414062 22.277344 25.542969 C 22.242188 25.417969 22.210938 25.289062 22.175781 25.160156 L 21.453125 22.386719 C 21.410156 22.226562 21.261719 22.113281 21.09375 22.113281 L 20.070312 22.113281 C 19.957031 22.113281 19.84375 22.171875 19.777344 22.261719 C 19.707031 22.355469 19.6875 22.476562 19.71875 22.585938 L 21.375 28.035156 C 21.421875 28.191406 21.566406 28.296875 21.730469 28.296875 L 22.636719 28.296875 C 22.792969 28.296875 22.933594 28.195312 22.984375 28.046875 L 23.871094 25.457031 C 23.925781 25.296875 23.976562 25.132812 24.03125 24.960938 C 24.078125 25.117188 24.125 25.277344 24.179688 25.441406 L 25.015625 28.042969 C 25.066406 28.195312 25.207031 28.296875 25.371094 28.296875 L 26.277344 28.296875 C 26.4375 28.296875 26.578125 28.195312 26.628906 28.042969 L 28.398438 22.59375 C 28.433594 22.480469 28.414062 22.359375 28.34375 22.265625 C 28.273438 22.171875 28.164062 22.113281 28.046875 22.113281 " fill-opacity="1" fill-rule="nonzero"/><path fill="currentColor" d="M 37.382812 22.113281 L 36.394531 22.113281 C 36.230469 22.113281 36.085938 22.222656 36.039062 22.382812 L 35.257812 25.117188 C 35.222656 25.246094 35.183594 25.375 35.148438 25.507812 C 35.109375 25.375 35.066406 25.238281 35.023438 25.097656 L 34.171875 22.375 C 34.125 22.21875 33.980469 22.113281 33.820312 22.113281 L 32.980469 22.113281 C 32.820312 22.113281 32.679688 22.21875 32.628906 22.371094 L 31.730469 25.152344 C 31.691406 25.285156 31.652344 25.414062 31.613281 25.542969 C 31.578125 25.417969 31.546875 25.289062 31.511719 25.160156 L 30.785156 22.386719 C 30.746094 22.226562 30.597656 22.113281 30.429688 22.113281 L 29.40625 22.113281 C 29.292969 22.113281 29.179688 22.171875 29.113281 22.261719 C 29.042969 22.355469 29.023438 22.476562 29.054688 22.585938 L 30.710938 28.035156 C 30.757812 28.191406 30.902344 28.296875 31.066406 28.296875 L 31.972656 28.296875 C 32.128906 28.296875 32.269531 28.195312 32.320312 28.046875 L 33.207031 25.457031 C 33.261719 25.296875 33.3125 25.132812 33.367188 24.960938 C 33.414062 25.117188 33.460938 25.277344 33.515625 25.441406 L 34.351562 28.042969 C 34.402344 28.195312 34.542969 28.296875 34.703125 28.296875 L 35.613281 28.296875 C 35.773438 28.296875 35.914062 28.195312 35.964844 28.042969 L 37.734375 22.59375 C 37.769531 22.480469 37.75 22.359375 37.679688 22.265625 C 37.609375 22.171875 37.5 22.113281 37.382812 22.113281 " fill-opacity="1" fill-rule="nonzero"/><path fill="currentColor" d="M 39.519531 22.304688 C 38.921875 22.304688 38.46875 22.769531 38.46875 23.382812 C 38.46875 23.988281 38.917969 24.445312 39.507812 24.445312 C 40.117188 24.445312 40.558594 24 40.558594 23.371094 C 40.539062 22.746094 40.113281 22.304688 39.519531 22.304688 " fill-opacity="1" fill-rule="nonzero"/><path fill="currentColor" d="M 39.519531 26.28125 C 38.921875 26.28125 38.46875 26.742188 38.46875 27.355469 C 38.46875 27.964844 38.917969 28.421875 39.507812 28.421875 C 40.117188 28.421875 40.558594 27.972656 40.558594 27.347656 C 40.539062 26.71875 40.113281 26.28125 39.519531 26.28125 " fill-opacity="1" fill-rule="nonzero"/><path fill="currentColor" d="M 45.679688 20.011719 C 45.609375 19.910156 45.496094 19.851562 45.375 19.851562 L 44.601562 19.851562 C 44.449219 19.851562 44.3125 19.945312 44.257812 20.085938 L 41.09375 28.25 C 41.050781 28.363281 41.066406 28.488281 41.132812 28.589844 C 41.203125 28.6875 41.316406 28.75 41.4375 28.75 L 42.195312 28.75 C 42.351562 28.75 42.488281 28.652344 42.542969 28.511719 L 45.71875 20.347656 C 45.761719 20.238281 45.746094 20.109375 45.679688 20.011719 " fill-opacity="1" fill-rule="nonzero"/><path fill="currentColor" d="M 49.566406 20.011719 C 49.5 19.910156 49.382812 19.851562 49.261719 19.851562 L 48.492188 19.851562 C 48.339844 19.851562 48.203125 19.945312 48.148438 20.085938 L 44.984375 28.25 C 44.941406 28.363281 44.957031 28.488281 45.023438 28.589844 C 45.09375 28.6875 45.207031 28.75 45.328125 28.75 L 46.085938 28.75 C 46.238281 28.75 46.378906 28.652344 46.433594 28.511719 L 49.605469 20.347656 C 49.652344 20.238281 49.636719 20.109375 49.566406 20.011719 " fill-opacity="1" fill-rule="nonzero"/><g clip-path="url(#05d94ee928)"><path fill="currentColor" d="M 47.851562 45.761719 L 44.640625 40.765625 C 44.445312 40.460938 44.128906 40.253906 43.765625 40.195312 C 43.695312 40.179688 43.625 40.175781 43.550781 40.175781 C 43.261719 40.175781 42.980469 40.273438 42.75 40.457031 C 42.554688 40.605469 42.359375 40.769531 42.160156 40.933594 C 41.800781 41.234375 41.429688 41.542969 41.054688 41.800781 L 40.96875 40.113281 C 40.863281 38.070312 40.753906 35.960938 40.675781 33.882812 C 42.925781 35.019531 45.242188 36.207031 47.734375 37.511719 C 47.355469 37.691406 46.914062 37.835938 46.445312 37.980469 C 46.152344 38.074219 45.863281 38.164062 45.585938 38.269531 C 45.214844 38.402344 44.925781 38.691406 44.800781 39.0625 C 44.679688 39.429688 44.730469 39.835938 44.941406 40.160156 L 48.347656 45.4375 Z M 50.929688 44.675781 L 48.011719 40.167969 C 48.417969 40.023438 48.824219 39.855469 49.222656 39.625 C 50.542969 38.878906 50.722656 37.949219 50.714844 37.457031 C 50.703125 36.863281 50.425781 36.019531 49.15625 35.351562 C 49.15625 35.351562 49.15625 35.351562 49.152344 35.351562 C 46.480469 33.957031 44.015625 32.691406 41.621094 31.480469 C 40.390625 30.855469 39.558594 31.089844 39.074219 31.398438 C 38.59375 31.699219 38.035156 32.339844 38.082031 33.667969 C 38.164062 35.863281 38.277344 38.09375 38.386719 40.242188 L 38.480469 42.089844 C 38.554688 43.511719 39.1875 44.125 39.710938 44.394531 C 40.226562 44.660156 41.089844 44.816406 42.273438 44.066406 C 42.621094 43.851562 42.945312 43.609375 43.25 43.367188 L 46.082031 47.777344 C 46.347656 48.1875 46.757812 48.472656 47.238281 48.574219 C 47.367188 48.601562 47.496094 48.613281 47.628906 48.613281 C 47.980469 48.613281 48.324219 48.515625 48.625 48.316406 L 50.382812 47.183594 C 51.226562 46.640625 51.472656 45.515625 50.929688 44.675781 " fill-opacity="1" fill-rule="nonzero"/></g></svg>