<svg xmlns="http://www.w3.org/2000/svg" xmlns:xlink="http://www.w3.org/1999/xlink" width="80" zoomAndPan="magnify" viewBox="0 0 60 60" height="80" preserveAspectRatio="xMidYMid meet" version="1.0"><defs><clipPath id="facc56817d"><path d="M 25 19 L 60 19 L 60 45.15625 L 25 45.15625 Z M 25 19 " clip-rule="nonzero"/></clipPath><clipPath id="d5059d1948"><path d="M 25 15.15625 L 51 15.15625 L 51 36 L 25 36 Z M 25 15.15625 " clip-rule="nonzero"/></clipPath></defs><g clip-path="url(#facc56817d)"><path fill="#000c11" d="M 26.785156 25.476562 C 26.496094 26.039062 26.222656 26.710938 26.058594 27.269531 C 25.988281 27.507812 25.90625 27.8125 25.875 27.960938 C 25.683594 28.84375 25.609375 29.5625 25.617188 30.449219 C 25.621094 30.78125 25.664062 31.335938 25.714844 31.695312 C 25.808594 32.382812 26 33.171875 26.226562 33.792969 C 26.597656 34.816406 27.089844 35.734375 27.71875 36.566406 C 28.429688 37.507812 29.246094 38.277344 30.265625 38.957031 C 30.449219 39.078125 31.058594 39.433594 31.25 39.527344 C 32.128906 39.960938 32.90625 40.234375 33.804688 40.417969 C 34.980469 40.65625 36.179688 40.683594 37.382812 40.5 C 38.164062 40.378906 39.023438 40.136719 39.742188 39.835938 C 40.425781 39.550781 40.984375 39.246094 41.589844 38.832031 C 42.246094 38.382812 42.828125 37.878906 43.367188 37.289062 C 43.710938 36.914062 44.054688 36.472656 44.324219 36.058594 L 44.375 35.988281 L 45.003906 36.351562 L 45.628906 36.714844 L 45.519531 36.910156 C 45.4375 37.054688 45.40625 37.113281 45.398438 37.152344 C 45.347656 37.328125 45.394531 37.523438 45.511719 37.660156 C 45.558594 37.710938 45.5625 37.714844 45.800781 37.855469 C 45.929688 37.933594 48.785156 39.59375 52.144531 41.550781 C 57.488281 44.660156 58.257812 45.105469 58.308594 45.121094 C 58.378906 45.144531 58.5 45.152344 58.574219 45.140625 C 58.640625 45.125 58.71875 45.089844 58.78125 45.046875 C 58.882812 44.976562 58.859375 45.011719 59.445312 43.976562 L 59.976562 43.035156 L 59.984375 42.976562 C 60 42.882812 59.996094 42.808594 59.96875 42.726562 C 59.945312 42.640625 59.917969 42.589844 59.863281 42.519531 L 59.824219 42.472656 L 58.636719 41.777344 C 57.980469 41.394531 55.113281 39.722656 52.257812 38.0625 L 47.066406 35.046875 L 47.007812 35.035156 C 46.839844 35.003906 46.675781 35.050781 46.542969 35.160156 C 46.496094 35.203125 46.492188 35.210938 46.375 35.410156 L 46.25 35.617188 L 46.1875 35.574219 C 46.152344 35.550781 45.871094 35.382812 45.5625 35.207031 L 45.003906 34.882812 L 45.070312 34.742188 C 45.148438 34.585938 45.234375 34.382812 45.335938 34.132812 C 45.402344 33.960938 45.421875 33.914062 45.507812 33.667969 C 45.746094 32.976562 45.925781 32.183594 46.007812 31.421875 C 46.027344 31.238281 46.058594 30.773438 46.0625 30.617188 C 46.066406 30.4375 46.066406 30.378906 46.066406 30.261719 C 46.058594 28.617188 45.664062 26.988281 44.917969 25.527344 C 44.625 24.957031 44.269531 24.398438 43.875 23.890625 C 43.246094 23.078125 42.488281 22.359375 41.652344 21.777344 C 41.191406 21.457031 40.679688 21.160156 40.179688 20.925781 C 38.351562 20.058594 36.304688 19.761719 34.300781 20.074219 C 33.082031 20.265625 31.90625 20.671875 30.84375 21.273438 C 29.972656 21.765625 29.238281 22.332031 28.515625 23.070312 C 28.359375 23.230469 28.109375 23.515625 27.9375 23.726562 C 27.824219 23.867188 27.769531 23.933594 27.601562 24.15625 C 27.378906 24.457031 26.980469 25.09375 26.785156 25.476562 Z M 29.574219 25.972656 C 30.035156 25.296875 30.542969 24.746094 31.167969 24.25 C 31.90625 23.660156 32.742188 23.222656 33.648438 22.945312 C 33.816406 22.890625 33.828125 22.890625 34.019531 22.84375 C 34.476562 22.726562 34.871094 22.667969 35.34375 22.632812 C 36.597656 22.550781 37.84375 22.785156 38.996094 23.320312 C 39.324219 23.46875 39.808594 23.746094 40.074219 23.925781 C 40.839844 24.457031 41.429688 25.027344 41.953125 25.742188 C 42.839844 26.953125 43.363281 28.445312 43.425781 29.953125 C 43.480469 31.253906 43.207031 32.53125 42.628906 33.703125 C 42.550781 33.863281 42.28125 34.339844 42.191406 34.472656 C 42.054688 34.683594 41.910156 34.890625 41.808594 35.015625 C 41.78125 35.050781 41.734375 35.113281 41.707031 35.148438 C 41.324219 35.632812 40.761719 36.160156 40.230469 36.542969 C 39.917969 36.769531 39.625 36.945312 39.269531 37.128906 C 37.359375 38.113281 35.101562 38.222656 33.097656 37.429688 C 32.707031 37.277344 32.5 37.175781 32.066406 36.921875 C 31.640625 36.675781 31.480469 36.566406 31.148438 36.304688 C 29.640625 35.113281 28.636719 33.378906 28.34375 31.460938 C 28.222656 30.671875 28.222656 29.867188 28.351562 29.074219 C 28.46875 28.335938 28.707031 27.582031 29.03125 26.921875 C 29.074219 26.839844 29.117188 26.753906 29.125 26.730469 C 29.179688 26.621094 29.488281 26.105469 29.574219 25.972656 Z M 29.574219 25.972656 " fill-opacity="1" fill-rule="nonzero"/></g><path fill="#000000" d="M 5.675781 21.6875 C 5.101562 21.699219 4.910156 21.71875 4.792969 21.765625 C 4.710938 21.796875 4.539062 21.835938 4.40625 21.855469 C 4.28125 21.875 4.089844 21.914062 3.988281 21.941406 C 3.5625 22.066406 3.03125 22.242188 2.96875 22.277344 C 2.933594 22.300781 2.804688 22.359375 2.6875 22.410156 C 2.570312 22.457031 2.4375 22.527344 2.386719 22.558594 C 2.339844 22.59375 2.167969 22.707031 2.011719 22.8125 C 1.332031 23.257812 0.675781 24.0625 0.410156 24.777344 C 0.371094 24.886719 0.316406 25.027344 0.289062 25.082031 C 0.265625 25.144531 0.238281 25.25 0.222656 25.320312 C 0.214844 25.394531 0.171875 25.558594 0.140625 25.6875 C 0.0546875 26.019531 0 27.011719 0.0429688 27.46875 C 0.101562 28.058594 0.136719 28.328125 0.191406 28.464844 C 0.21875 28.539062 0.277344 28.726562 0.324219 28.886719 C 0.449219 29.316406 0.917969 30.066406 1.226562 30.332031 C 1.261719 30.363281 1.375 30.460938 1.476562 30.546875 C 1.832031 30.859375 2.511719 31.269531 2.917969 31.417969 C 3.039062 31.460938 3.167969 31.515625 3.203125 31.539062 C 3.238281 31.5625 3.332031 31.597656 3.402344 31.617188 C 3.476562 31.632812 3.644531 31.683594 3.773438 31.722656 C 4.28125 31.882812 5.761719 32.230469 6.28125 32.316406 C 6.351562 32.324219 6.511719 32.363281 6.628906 32.398438 C 6.75 32.433594 7.015625 32.492188 7.214844 32.53125 C 7.417969 32.574219 7.644531 32.632812 7.71875 32.667969 C 7.789062 32.703125 7.929688 32.75 8.019531 32.769531 C 8.246094 32.820312 8.757812 33.074219 8.925781 33.222656 C 9.121094 33.394531 9.28125 33.625 9.390625 33.902344 C 9.480469 34.117188 9.488281 34.175781 9.488281 34.542969 C 9.488281 34.910156 9.480469 34.96875 9.390625 35.191406 C 9.148438 35.804688 8.601562 36.222656 7.800781 36.417969 C 7.738281 36.433594 7.535156 36.472656 7.347656 36.511719 C 6.75 36.621094 5.246094 36.582031 4.539062 36.433594 C 4.414062 36.410156 4.238281 36.378906 4.15625 36.367188 C 4.074219 36.355469 3.910156 36.316406 3.789062 36.285156 C 3.667969 36.246094 3.4375 36.183594 3.269531 36.144531 C 3.105469 36.105469 2.898438 36.035156 2.8125 35.988281 C 2.726562 35.949219 2.632812 35.910156 2.609375 35.910156 C 2.535156 35.910156 2.050781 35.75 2 35.707031 C 1.976562 35.691406 1.863281 35.644531 1.746094 35.605469 C 1.523438 35.53125 1.476562 35.511719 0.789062 35.183594 C 0.53125 35.058594 0.359375 35 0.324219 35.011719 C 0.269531 35.03125 0.265625 35.089844 0.289062 35.820312 C 0.300781 36.253906 0.3125 37.015625 0.3125 37.523438 C 0.3125 38.582031 0.296875 38.539062 0.644531 38.636719 C 0.746094 38.664062 0.882812 38.710938 0.945312 38.734375 C 1.007812 38.761719 1.125 38.796875 1.195312 38.816406 C 1.269531 38.835938 1.445312 38.882812 1.582031 38.921875 C 1.71875 38.960938 1.921875 39.015625 2.03125 39.042969 C 2.144531 39.066406 2.332031 39.117188 2.449219 39.15625 C 2.570312 39.191406 2.765625 39.242188 2.886719 39.257812 C 3.003906 39.277344 3.164062 39.308594 3.238281 39.324219 C 3.308594 39.339844 3.421875 39.359375 3.488281 39.359375 C 3.550781 39.359375 3.710938 39.398438 3.839844 39.441406 C 4.007812 39.503906 4.144531 39.527344 4.328125 39.527344 C 4.46875 39.527344 4.769531 39.550781 5 39.582031 C 5.347656 39.628906 5.644531 39.636719 6.898438 39.617188 C 8.226562 39.601562 8.417969 39.59375 8.652344 39.535156 C 8.800781 39.496094 9.011719 39.457031 9.121094 39.445312 C 9.230469 39.433594 9.40625 39.398438 9.507812 39.367188 C 9.605469 39.339844 9.773438 39.292969 9.875 39.269531 C 10.398438 39.144531 11.167969 38.800781 11.664062 38.464844 C 11.992188 38.242188 12.515625 37.710938 12.742188 37.367188 C 13.046875 36.910156 13.386719 36.144531 13.386719 35.910156 C 13.386719 35.863281 13.421875 35.757812 13.460938 35.675781 C 13.503906 35.589844 13.5625 35.453125 13.585938 35.359375 C 13.636719 35.167969 13.675781 35.132812 13.714844 35.246094 C 13.734375 35.292969 13.757812 36.183594 13.773438 37.230469 C 13.792969 38.75 13.804688 39.136719 13.84375 39.171875 C 13.875 39.210938 14.085938 39.214844 14.933594 39.203125 C 15.503906 39.195312 17.058594 39.171875 18.382812 39.15625 C 19.707031 39.136719 21.21875 39.117188 21.746094 39.105469 C 22.269531 39.09375 23.414062 39.078125 24.289062 39.066406 C 25.164062 39.054688 25.902344 39.035156 25.925781 39.019531 C 25.957031 39 25.957031 38.671875 25.929688 37.453125 C 25.910156 36.605469 25.882812 35.894531 25.871094 35.875 C 25.851562 35.839844 25.042969 35.84375 22.464844 35.894531 C 22.003906 35.90625 20.863281 35.921875 19.921875 35.933594 C 18.21875 35.953125 18.21875 35.953125 18.125 35.882812 C 18.070312 35.832031 18.03125 35.765625 18.019531 35.683594 C 18.007812 35.613281 18 34.726562 17.992188 33.707031 L 17.984375 31.859375 L 18.058594 31.78125 L 18.136719 31.703125 L 20.535156 31.675781 C 21.851562 31.664062 23.421875 31.640625 24.019531 31.625 L 25.105469 31.601562 L 25.117188 30.050781 C 25.121094 28.871094 25.113281 28.492188 25.082031 28.453125 C 25.046875 28.410156 24.953125 28.40625 24.488281 28.421875 C 24.183594 28.433594 23.046875 28.449219 21.960938 28.460938 C 20.878906 28.46875 19.585938 28.488281 19.085938 28.496094 C 18.148438 28.515625 18.035156 28.507812 17.96875 28.382812 C 17.921875 28.292969 17.902344 27.738281 17.894531 26.351562 L 17.890625 25.1875 L 17.980469 25.109375 C 18.0625 25.035156 18.101562 25.03125 18.476562 25.03125 C 18.703125 25.03125 19.191406 25.019531 19.570312 25.011719 C 19.949219 25.003906 21.414062 24.980469 22.832031 24.960938 C 24.910156 24.933594 25.414062 24.917969 25.449219 24.882812 C 25.488281 24.84375 25.488281 24.566406 25.46875 23.292969 C 25.449219 21.925781 25.441406 21.746094 25.394531 21.722656 C 25.363281 21.710938 24.863281 21.707031 24.285156 21.722656 C 23.707031 21.730469 21.824219 21.761719 20.105469 21.78125 C 13.828125 21.859375 13.660156 21.867188 13.605469 21.921875 C 13.566406 21.964844 13.5625 22.226562 13.585938 23.847656 C 13.617188 25.855469 13.691406 31.574219 13.695312 32.160156 C 13.703125 32.714844 13.632812 32.933594 13.550781 32.625 C 13.527344 32.546875 13.484375 32.449219 13.453125 32.414062 C 13.414062 32.375 13.34375 32.207031 13.289062 32.042969 C 12.992188 31.121094 12.332031 30.40625 11.261719 29.851562 C 11.0625 29.746094 10.789062 29.621094 10.660156 29.570312 C 10.53125 29.523438 10.40625 29.46875 10.382812 29.449219 C 10.359375 29.429688 10.257812 29.394531 10.160156 29.367188 C 10.058594 29.34375 9.894531 29.300781 9.796875 29.273438 C 9.699219 29.25 9.578125 29.207031 9.523438 29.179688 C 9.464844 29.148438 9.324219 29.109375 9.207031 29.089844 C 8.757812 29.015625 8.425781 28.949219 8.257812 28.902344 C 8.160156 28.875 7.996094 28.839844 7.882812 28.832031 C 7.773438 28.816406 7.601562 28.789062 7.5 28.765625 C 7.398438 28.742188 7.25 28.710938 7.164062 28.699219 C 6.898438 28.664062 5.890625 28.441406 5.511719 28.339844 C 5.289062 28.277344 5.089844 28.195312 4.707031 28.019531 C 4.484375 27.914062 4.171875 27.625 4.074219 27.429688 C 4.027344 27.339844 3.972656 27.140625 3.945312 26.988281 C 3.90625 26.746094 3.90625 26.65625 3.9375 26.398438 C 3.988281 26.039062 4.050781 25.882812 4.222656 25.652344 C 4.535156 25.234375 5.167969 24.933594 5.960938 24.835938 C 7.039062 24.707031 7.339844 24.695312 7.816406 24.777344 C 7.984375 24.804688 8.226562 24.828125 8.351562 24.828125 C 8.484375 24.828125 8.675781 24.84375 8.789062 24.863281 C 8.898438 24.882812 9.117188 24.917969 9.277344 24.945312 C 9.4375 24.96875 9.597656 25.007812 9.636719 25.027344 C 9.671875 25.050781 9.8125 25.085938 9.949219 25.109375 C 10.28125 25.175781 10.984375 25.378906 11.363281 25.523438 C 11.492188 25.570312 11.671875 25.636719 11.761719 25.671875 C 11.855469 25.707031 12.015625 25.769531 12.121094 25.816406 C 12.304688 25.898438 12.316406 25.902344 12.34375 25.84375 C 12.363281 25.808594 12.371094 25.164062 12.359375 24.136719 C 12.34375 22.703125 12.332031 22.480469 12.285156 22.425781 C 12.25 22.375 12.160156 22.351562 11.992188 22.328125 C 11.859375 22.3125 11.734375 22.289062 11.714844 22.277344 C 11.691406 22.261719 11.570312 22.238281 11.441406 22.222656 C 11.316406 22.203125 11.171875 22.171875 11.121094 22.144531 C 11.066406 22.117188 10.9375 22.085938 10.828125 22.074219 C 10.714844 22.0625 10.5 22.03125 10.34375 22.003906 C 8.613281 21.710938 7.535156 21.636719 5.675781 21.6875 Z M 5.675781 21.6875 " fill-opacity="1" fill-rule="nonzero"/><g clip-path="url(#d5059d1948)"><path fill="#000000" d="M 50.003906 15.164062 C 49.742188 15.164062 48.664062 15.617188 45.066406 17.179688 C 42.355469 18.359375 40.183594 19.355469 40.253906 19.382812 C 40.324219 19.414062 41.34375 19.570312 42.535156 19.722656 C 43.722656 19.871094 44.703125 20.007812 44.722656 20.019531 C 44.742188 20.035156 44.148438 21.230469 43.203125 23.109375 C 42.820312 23.863281 42.382812 24.726562 41.902344 25.671875 C 41.410156 26.636719 40.875 27.683594 40.3125 28.777344 L 39.4375 30.476562 L 35.539062 27.773438 L 31.648438 25.074219 L 30.695312 26.214844 C 29.902344 27.179688 29.082031 28.1875 28.347656 29.097656 C 26.988281 30.777344 25.914062 32.125 25.8125 32.28125 C 25.808594 32.289062 25.804688 32.296875 25.804688 32.296875 C 25.808594 32.296875 25.808594 32.292969 25.8125 32.292969 C 25.8125 32.289062 25.8125 32.289062 25.816406 32.289062 C 25.855469 32.257812 25.886719 32.238281 25.90625 32.238281 C 25.972656 32.238281 25.976562 32.398438 25.976562 32.917969 L 25.976562 32.992188 C 26.054688 33.273438 26.136719 33.546875 26.226562 33.792969 C 26.269531 33.90625 26.3125 34.019531 26.355469 34.132812 L 28.289062 31.855469 C 28.320312 31.816406 28.355469 31.773438 28.390625 31.734375 C 30.132812 29.683594 31.570312 28.023438 31.617188 28.023438 C 31.617188 28.023438 31.617188 28.023438 31.621094 28.023438 C 31.679688 28.023438 32.203125 28.496094 32.796875 29.085938 C 37.714844 33.910156 39.683594 35.789062 39.824219 35.789062 C 39.828125 35.789062 39.828125 35.789062 39.832031 35.785156 C 39.890625 35.726562 41.171875 33.453125 43.386719 29.472656 L 43.390625 29.472656 C 43.941406 28.476562 44.554688 27.375 45.21875 26.175781 C 45.339844 25.964844 45.457031 25.75 45.578125 25.53125 C 46.589844 23.703125 47.476562 22.144531 47.535156 22.074219 C 47.542969 22.066406 47.550781 22.0625 47.566406 22.0625 C 47.6875 22.0625 48.046875 22.484375 49.019531 23.78125 C 49.765625 24.773438 50.386719 25.578125 50.421875 25.578125 C 50.472656 25.539062 50.128906 15.34375 50.070312 15.191406 C 50.0625 15.175781 50.039062 15.164062 50.003906 15.164062 Z M 50.003906 15.164062 " fill-opacity="1" fill-rule="nonzero"/></g></svg>