<svg xmlns="http://www.w3.org/2000/svg" xmlns:xlink="http://www.w3.org/1999/xlink" width="80" zoomAndPan="magnify" viewBox="0 0 60 60" height="80" preserveAspectRatio="xMidYMid meet" version="1.0"><defs><clipPath id="f555837bdf"><path d="M 0 0.152344 L 60 0.152344 L 60 60 L 0 60 Z M 0 0.152344 " clip-rule="nonzero"/></clipPath></defs><g clip-path="url(#f555837bdf)"><path fill="#000000" d="M 30 0.152344 C 29.015625 0.152344 28.039062 0.199219 27.058594 0.296875 C 26.082031 0.390625 25.109375 0.535156 24.148438 0.726562 C 23.183594 0.917969 22.230469 1.15625 21.292969 1.441406 C 20.351562 1.726562 19.425781 2.058594 18.519531 2.433594 C 17.613281 2.808594 16.726562 3.230469 15.859375 3.691406 C 14.992188 4.15625 14.148438 4.660156 13.332031 5.207031 C 12.515625 5.753906 11.726562 6.335938 10.96875 6.960938 C 10.207031 7.582031 9.480469 8.242188 8.785156 8.9375 C 8.09375 9.632812 7.433594 10.359375 6.808594 11.117188 C 6.1875 11.878906 5.601562 12.667969 5.054688 13.484375 C 4.511719 14.300781 4.003906 15.140625 3.542969 16.007812 C 3.078125 16.875 2.660156 17.761719 2.285156 18.671875 C 1.90625 19.578125 1.578125 20.5 1.292969 21.441406 C 1.007812 22.382812 0.769531 23.335938 0.578125 24.296875 C 0.382812 25.261719 0.242188 26.230469 0.144531 27.210938 C 0.046875 28.1875 0 29.167969 0 30.152344 C 0 31.132812 0.046875 32.113281 0.144531 33.089844 C 0.242188 34.070312 0.382812 35.039062 0.578125 36.003906 C 0.769531 36.96875 1.007812 37.917969 1.292969 38.859375 C 1.578125 39.800781 1.90625 40.722656 2.285156 41.632812 C 2.660156 42.539062 3.078125 43.425781 3.542969 44.292969 C 4.003906 45.160156 4.511719 46 5.054688 46.816406 C 5.601562 47.632812 6.1875 48.421875 6.808594 49.183594 C 7.433594 49.941406 8.09375 50.667969 8.785156 51.363281 C 9.480469 52.058594 10.207031 52.71875 10.96875 53.339844 C 11.726562 53.964844 12.515625 54.546875 13.332031 55.09375 C 14.148438 55.640625 14.992188 56.144531 15.859375 56.609375 C 16.726562 57.070312 17.613281 57.492188 18.519531 57.867188 C 19.425781 58.242188 20.351562 58.574219 21.292969 58.859375 C 22.230469 59.144531 23.183594 59.382812 24.148438 59.574219 C 25.109375 59.765625 26.082031 59.910156 27.058594 60.007812 C 28.039062 60.101562 29.015625 60.152344 30 60.152344 C 30.984375 60.152344 31.960938 60.101562 32.941406 60.007812 C 33.917969 59.910156 34.890625 59.765625 35.851562 59.574219 C 36.816406 59.382812 37.769531 59.144531 38.707031 58.859375 C 39.648438 58.574219 40.574219 58.242188 41.480469 57.867188 C 42.386719 57.492188 43.273438 57.070312 44.140625 56.609375 C 45.007812 56.144531 45.851562 55.640625 46.667969 55.09375 C 47.484375 54.546875 48.273438 53.964844 49.03125 53.339844 C 49.792969 52.71875 50.519531 52.058594 51.214844 51.363281 C 51.90625 50.667969 52.566406 49.941406 53.191406 49.183594 C 53.8125 48.421875 54.398438 47.632812 54.945312 46.816406 C 55.488281 46 55.996094 45.160156 56.457031 44.292969 C 56.921875 43.425781 57.339844 42.539062 57.714844 41.632812 C 58.09375 40.722656 58.421875 39.800781 58.707031 38.859375 C 58.992188 37.917969 59.230469 36.96875 59.421875 36.003906 C 59.617188 35.039062 59.757812 34.070312 59.855469 33.089844 C 59.953125 32.113281 60 31.132812 60 30.152344 C 60 29.167969 59.949219 28.1875 59.851562 27.210938 C 59.753906 26.234375 59.609375 25.261719 59.417969 24.300781 C 59.226562 23.335938 58.988281 22.386719 58.699219 21.445312 C 58.414062 20.507812 58.082031 19.582031 57.707031 18.675781 C 57.332031 17.769531 56.910156 16.882812 56.449219 16.015625 C 55.984375 15.148438 55.480469 14.308594 54.933594 13.492188 C 54.386719 12.675781 53.804688 11.886719 53.179688 11.128906 C 52.558594 10.367188 51.898438 9.640625 51.203125 8.945312 C 50.507812 8.253906 49.78125 7.59375 49.023438 6.96875 C 48.261719 6.347656 47.476562 5.761719 46.660156 5.21875 C 45.84375 4.671875 45 4.167969 44.136719 3.703125 C 43.269531 3.238281 42.382812 2.820312 41.476562 2.441406 C 40.566406 2.066406 39.644531 1.734375 38.703125 1.449219 C 37.765625 1.164062 36.8125 0.925781 35.851562 0.734375 C 34.886719 0.539062 33.917969 0.394531 32.941406 0.296875 C 31.960938 0.199219 30.980469 0.152344 30 0.152344 Z M 30 55.351562 C 29.175781 55.351562 28.351562 55.308594 27.53125 55.230469 C 26.707031 55.148438 25.894531 55.027344 25.082031 54.867188 C 24.273438 54.707031 23.476562 54.503906 22.683594 54.265625 C 21.894531 54.027344 21.117188 53.75 20.355469 53.433594 C 19.59375 53.117188 18.847656 52.765625 18.121094 52.375 C 17.394531 51.984375 16.6875 51.5625 16 51.105469 C 15.3125 50.644531 14.652344 50.152344 14.011719 49.628906 C 13.375 49.105469 12.765625 48.554688 12.179688 47.96875 C 11.597656 47.386719 11.042969 46.773438 10.519531 46.136719 C 9.996094 45.5 9.503906 44.835938 9.046875 44.152344 C 8.589844 43.464844 8.164062 42.757812 7.777344 42.03125 C 7.386719 41.300781 7.035156 40.558594 6.71875 39.792969 C 6.402344 39.03125 6.125 38.253906 5.886719 37.464844 C 5.644531 36.675781 5.445312 35.875 5.285156 35.066406 C 5.125 34.257812 5.003906 33.441406 4.921875 32.621094 C 4.839844 31.800781 4.800781 30.976562 4.800781 30.152344 C 4.800781 29.324219 4.839844 28.5 4.921875 27.679688 C 5.003906 26.859375 5.125 26.042969 5.285156 25.234375 C 5.445312 24.425781 5.644531 23.625 5.886719 22.835938 C 6.125 22.046875 6.402344 21.269531 6.71875 20.507812 C 7.035156 19.746094 7.386719 19 7.777344 18.269531 C 8.164062 17.542969 8.589844 16.835938 9.046875 16.148438 C 9.503906 15.464844 9.996094 14.800781 10.519531 14.164062 C 11.042969 13.527344 11.597656 12.914062 12.179688 12.332031 C 12.765625 11.746094 13.375 11.195312 14.011719 10.671875 C 14.652344 10.148438 15.3125 9.65625 16 9.199219 C 16.6875 8.738281 17.394531 8.316406 18.121094 7.925781 C 18.847656 7.535156 19.59375 7.183594 20.355469 6.867188 C 21.117188 6.554688 21.894531 6.273438 22.683594 6.035156 C 23.476562 5.796875 24.273438 5.597656 25.082031 5.433594 C 25.894531 5.273438 26.707031 5.152344 27.53125 5.070312 C 28.351562 4.992188 29.175781 4.949219 30 4.949219 C 30.824219 4.949219 31.648438 4.992188 32.46875 5.070312 C 33.292969 5.152344 34.105469 5.273438 34.917969 5.433594 C 35.726562 5.597656 36.523438 5.796875 37.316406 6.035156 C 38.105469 6.273438 38.882812 6.554688 39.644531 6.867188 C 40.40625 7.183594 41.152344 7.535156 41.878906 7.925781 C 42.605469 8.316406 43.3125 8.738281 44 9.199219 C 44.6875 9.65625 45.347656 10.148438 45.988281 10.671875 C 46.625 11.195312 47.234375 11.746094 47.820312 12.332031 C 48.402344 12.914062 48.957031 13.527344 49.480469 14.164062 C 50.003906 14.800781 50.496094 15.464844 50.953125 16.148438 C 51.410156 16.835938 51.835938 17.542969 52.222656 18.269531 C 52.613281 19 52.964844 19.746094 53.28125 20.507812 C 53.597656 21.269531 53.875 22.046875 54.113281 22.835938 C 54.355469 23.625 54.554688 24.425781 54.714844 25.234375 C 54.875 26.042969 54.996094 26.859375 55.078125 27.679688 C 55.160156 28.5 55.199219 29.324219 55.199219 30.152344 C 55.199219 30.976562 55.15625 31.796875 55.074219 32.621094 C 54.996094 33.441406 54.871094 34.253906 54.710938 35.066406 C 54.550781 35.875 54.347656 36.671875 54.109375 37.460938 C 53.867188 38.25 53.589844 39.027344 53.273438 39.789062 C 52.957031 40.550781 52.605469 41.296875 52.214844 42.023438 C 51.828125 42.75 51.402344 43.457031 50.945312 44.144531 C 50.484375 44.828125 49.996094 45.492188 49.472656 46.128906 C 48.949219 46.765625 48.394531 47.378906 47.8125 47.960938 C 47.226562 48.542969 46.617188 49.097656 45.980469 49.621094 C 45.339844 50.144531 44.679688 50.636719 43.992188 51.09375 C 43.308594 51.554688 42.601562 51.976562 41.875 52.367188 C 41.144531 52.753906 40.402344 53.109375 39.640625 53.425781 C 38.878906 53.742188 38.101562 54.019531 37.3125 54.257812 C 36.523438 54.5 35.722656 54.699219 34.914062 54.863281 C 34.105469 55.023438 33.289062 55.144531 32.46875 55.226562 C 31.648438 55.308594 30.824219 55.347656 30 55.351562 Z M 30 19.351562 C 30.316406 19.351562 30.628906 19.320312 30.9375 19.257812 C 31.246094 19.195312 31.546875 19.105469 31.835938 18.984375 C 32.128906 18.863281 32.40625 18.714844 32.667969 18.542969 C 32.929688 18.367188 33.171875 18.167969 33.394531 17.945312 C 33.617188 17.722656 33.816406 17.480469 33.992188 17.21875 C 34.167969 16.957031 34.3125 16.679688 34.433594 16.386719 C 34.554688 16.097656 34.644531 15.796875 34.707031 15.488281 C 34.769531 15.179688 34.800781 14.867188 34.800781 14.550781 C 34.800781 14.234375 34.769531 13.921875 34.707031 13.613281 C 34.644531 13.304688 34.554688 13.003906 34.433594 12.714844 C 34.3125 12.421875 34.167969 12.144531 33.992188 11.882812 C 33.816406 11.621094 33.617188 11.378906 33.394531 11.15625 C 33.171875 10.933594 32.929688 10.734375 32.667969 10.558594 C 32.40625 10.382812 32.128906 10.238281 31.835938 10.117188 C 31.546875 9.996094 31.246094 9.902344 30.9375 9.84375 C 30.628906 9.78125 30.316406 9.75 30 9.75 C 29.683594 9.75 29.371094 9.78125 29.0625 9.84375 C 28.753906 9.902344 28.453125 9.996094 28.164062 10.117188 C 27.871094 10.238281 27.59375 10.382812 27.332031 10.558594 C 27.070312 10.734375 26.828125 10.933594 26.605469 11.15625 C 26.382812 11.378906 26.183594 11.621094 26.007812 11.882812 C 25.832031 12.144531 25.6875 12.421875 25.566406 12.714844 C 25.445312 13.003906 25.355469 13.304688 25.292969 13.613281 C 25.230469 13.921875 25.199219 14.234375 25.199219 14.550781 C 25.199219 14.867188 25.230469 15.179688 25.292969 15.488281 C 25.355469 15.796875 25.445312 16.097656 25.566406 16.386719 C 25.6875 16.679688 25.832031 16.957031 26.007812 17.21875 C 26.183594 17.480469 26.382812 17.722656 26.605469 17.945312 C 26.828125 18.167969 27.070312 18.367188 27.332031 18.542969 C 27.59375 18.714844 27.871094 18.863281 28.164062 18.984375 C 28.453125 19.105469 28.753906 19.195312 29.0625 19.257812 C 29.371094 19.320312 29.683594 19.351562 30 19.351562 Z M 42.855469 19.375 L 30.296875 21.203125 C 30.097656 21.230469 29.902344 21.230469 29.703125 21.203125 L 17.144531 19.375 C 16.832031 19.332031 16.519531 19.347656 16.210938 19.425781 C 15.902344 19.503906 15.621094 19.640625 15.367188 19.828125 C 15.113281 20.019531 14.90625 20.25 14.742188 20.523438 C 14.582031 20.796875 14.476562 21.089844 14.429688 21.40625 C 14.386719 21.71875 14.402344 22.03125 14.480469 22.339844 C 14.558594 22.648438 14.691406 22.929688 14.878906 23.183594 C 15.070312 23.4375 15.300781 23.648438 15.574219 23.8125 C 15.847656 23.972656 16.140625 24.078125 16.453125 24.125 L 24.183594 25.25 C 24.328125 25.273438 24.449219 25.335938 24.546875 25.449219 C 24.640625 25.558594 24.691406 25.6875 24.691406 25.835938 L 24.691406 35.097656 L 24.484375 36.042969 L 19.527344 46.941406 C 19.367188 47.214844 19.265625 47.511719 19.222656 47.828125 C 19.179688 48.140625 19.199219 48.453125 19.277344 48.761719 C 19.359375 49.070312 19.496094 49.347656 19.6875 49.601562 C 19.882812 49.855469 20.117188 50.0625 20.390625 50.222656 C 20.664062 50.382812 20.960938 50.484375 21.277344 50.527344 C 21.589844 50.570312 21.902344 50.550781 22.210938 50.472656 C 22.519531 50.390625 22.800781 50.253906 23.050781 50.0625 C 23.304688 49.867188 23.511719 49.636719 23.671875 49.359375 L 29.417969 37.402344 C 29.539062 37.148438 29.742188 37.023438 30.019531 37.023438 C 30.300781 37.023438 30.5 37.152344 30.621094 37.402344 L 36.324219 49.359375 C 36.488281 49.632812 36.695312 49.867188 36.945312 50.058594 C 37.199219 50.25 37.480469 50.386719 37.789062 50.464844 C 38.09375 50.546875 38.40625 50.566406 38.722656 50.523438 C 39.035156 50.480469 39.332031 50.378906 39.605469 50.21875 C 39.878906 50.058594 40.113281 49.851562 40.304688 49.597656 C 40.5 49.347656 40.636719 49.066406 40.71875 48.757812 C 40.796875 48.453125 40.816406 48.140625 40.777344 47.824219 C 40.734375 47.511719 40.632812 47.214844 40.472656 46.941406 L 35.4375 35.871094 L 35.308594 35.28125 L 35.308594 25.835938 C 35.308594 25.6875 35.359375 25.558594 35.453125 25.449219 C 35.550781 25.335938 35.671875 25.273438 35.816406 25.25 L 43.542969 24.125 C 43.859375 24.078125 44.152344 23.976562 44.425781 23.8125 C 44.699219 23.648438 44.929688 23.441406 45.117188 23.183594 C 45.308594 22.929688 45.441406 22.648438 45.519531 22.339844 C 45.597656 22.03125 45.613281 21.722656 45.570312 21.40625 C 45.523438 21.09375 45.417969 20.800781 45.257812 20.527344 C 45.09375 20.253906 44.886719 20.019531 44.632812 19.832031 C 44.378906 19.640625 44.097656 19.503906 43.789062 19.425781 C 43.480469 19.347656 43.171875 19.332031 42.855469 19.375 Z M 42.855469 19.375 " fill-opacity="1" fill-rule="nonzero"/></g></svg>