<svg xmlns="http://www.w3.org/2000/svg" xmlns:xlink="http://www.w3.org/1999/xlink" width="80" zoomAndPan="magnify" viewBox="0 0 60 60" height="80" preserveAspectRatio="xMidYMid meet" version="1.0"><defs><clipPath id="6fc6b7c432"><path d="M 2.6875 11 L 35 11 L 35 43 L 2.6875 43 Z M 2.6875 11 " clip-rule="nonzero"/></clipPath><clipPath id="5f469adada"><path d="M 8 16 L 57.4375 16 L 57.4375 60 L 8 60 Z M 8 16 " clip-rule="nonzero"/></clipPath></defs><g clip-path="url(#6fc6b7c432)"><path fill="#333333" d="M 23.5 40.539062 L 7.691406 40.539062 C 5.964844 40.539062 4.5625 39.140625 4.5625 37.417969 L 4.5625 16.097656 C 4.5625 14.378906 5.964844 12.980469 7.691406 12.980469 L 29.058594 12.980469 C 30.785156 12.980469 32.1875 14.378906 32.1875 16.097656 L 32.1875 20.808594 C 32.1875 21.324219 32.605469 21.742188 33.125 21.742188 C 33.644531 21.742188 34.0625 21.324219 34.0625 20.808594 L 34.0625 16.097656 C 34.0625 13.347656 31.820312 11.109375 29.058594 11.109375 L 7.691406 11.109375 C 4.929688 11.109375 2.6875 13.347656 2.6875 16.097656 L 2.6875 37.417969 C 2.6875 40.171875 4.929688 42.410156 7.691406 42.410156 L 23.5 42.410156 C 24.019531 42.410156 24.4375 41.992188 24.4375 41.472656 C 24.4375 40.957031 24.019531 40.539062 23.5 40.539062 Z M 23.5 40.539062 " fill-opacity="1" fill-rule="nonzero"/></g><path fill="#333333" d="M 19.375 9.511719 C 19.894531 9.511719 20.3125 9.09375 20.3125 8.578125 L 20.3125 5 C 20.3125 3.28125 21.714844 1.878906 23.441406 1.878906 L 44.808594 1.878906 C 46.535156 1.878906 47.9375 3.28125 47.9375 5 L 47.9375 20.808594 C 47.9375 21.324219 48.355469 21.742188 48.875 21.742188 C 49.394531 21.742188 49.8125 21.324219 49.8125 20.808594 L 49.8125 5 C 49.8125 2.25 47.570312 0.0117188 44.808594 0.0117188 L 23.441406 0.0117188 C 20.679688 0.0117188 18.4375 2.25 18.4375 5 L 18.4375 8.578125 C 18.4375 9.09375 18.855469 9.511719 19.375 9.511719 Z M 19.375 9.511719 " fill-opacity="1" fill-rule="nonzero"/><g clip-path="url(#5f469adada)"><path fill="#333333" d="M 52.433594 23.328125 L 31.066406 23.328125 C 28.304688 23.328125 26.0625 25.570312 26.0625 28.320312 L 26.0625 34.644531 C 23.371094 33.53125 21.234375 32.085938 19.582031 30.667969 C 20.6875 29.496094 21.523438 28.351562 22.148438 27.339844 C 23.632812 24.933594 24.203125 22.875 24.398438 21.992188 L 27.386719 21.992188 C 27.902344 21.992188 28.324219 21.574219 28.324219 21.058594 C 28.324219 20.542969 27.902344 20.121094 27.386719 20.121094 L 19.269531 20.121094 L 19.269531 17.582031 C 19.269531 17.066406 18.851562 16.648438 18.332031 16.648438 C 17.8125 16.648438 17.394531 17.066406 17.394531 17.582031 L 17.394531 20.121094 L 9.277344 20.121094 C 8.757812 20.121094 8.339844 20.542969 8.339844 21.058594 C 8.339844 21.574219 8.757812 21.992188 9.277344 21.992188 L 22.464844 21.992188 C 22.109375 23.339844 21.046875 26.378906 18.207031 29.390625 C 16.648438 27.824219 15.707031 26.441406 15.300781 25.777344 C 15.027344 25.339844 14.449219 25.203125 14.011719 25.472656 C 13.570312 25.742188 13.429688 26.320312 13.703125 26.757812 C 14.148438 27.480469 15.171875 28.988281 16.859375 30.6875 C 15.082031 32.25 12.765625 33.738281 9.753906 34.890625 C 9.269531 35.078125 9.027344 35.617188 9.214844 36.101562 C 9.359375 36.472656 9.714844 36.699219 10.089844 36.699219 C 10.203125 36.699219 10.316406 36.679688 10.425781 36.636719 C 13.769531 35.355469 16.3125 33.683594 18.234375 31.972656 C 20.167969 33.65625 22.730469 35.382812 26.003906 36.636719 C 26.023438 36.644531 26.042969 36.652344 26.0625 36.65625 L 26.0625 49.640625 C 26.0625 52.390625 28.304688 54.632812 31.066406 54.632812 L 32.8125 54.632812 L 32.8125 59.058594 C 32.8125 59.425781 33.027344 59.757812 33.363281 59.910156 C 33.488281 59.964844 33.617188 59.992188 33.75 59.992188 C 33.972656 59.992188 34.195312 59.914062 34.367188 59.761719 L 40.226562 54.632812 L 52.433594 54.632812 C 55.195312 54.632812 57.4375 52.390625 57.4375 49.640625 L 57.4375 28.320312 C 57.4375 25.570312 55.195312 23.328125 52.433594 23.328125 Z M 55.5625 49.640625 C 55.5625 51.359375 54.160156 52.761719 52.433594 52.761719 L 39.875 52.761719 C 39.648438 52.761719 39.425781 52.84375 39.257812 52.992188 L 34.6875 56.992188 L 34.6875 53.695312 C 34.6875 53.179688 34.269531 52.761719 33.75 52.761719 L 31.066406 52.761719 C 29.339844 52.761719 27.9375 51.359375 27.9375 49.640625 L 27.9375 28.320312 C 27.9375 26.601562 29.339844 25.199219 31.066406 25.199219 L 52.433594 25.199219 C 54.160156 25.199219 55.5625 26.601562 55.5625 28.320312 Z M 55.5625 49.640625 " fill-opacity="1" fill-rule="nonzero"/></g><path fill="#333333" d="M 42.605469 30.746094 C 42.460938 30.390625 42.121094 30.160156 41.738281 30.160156 C 41.355469 30.160156 41.011719 30.390625 40.871094 30.746094 L 36.546875 41.359375 C 36.546875 41.363281 36.542969 41.363281 36.542969 41.367188 L 34.457031 46.488281 C 34.265625 46.964844 34.496094 47.511719 34.972656 47.707031 C 35.089844 47.753906 35.210938 47.773438 35.328125 47.773438 C 35.695312 47.773438 36.046875 47.554688 36.195312 47.191406 L 38.039062 42.660156 L 45.433594 42.660156 L 47.28125 47.191406 C 47.472656 47.671875 48.019531 47.902344 48.5 47.707031 C 48.980469 47.511719 49.210938 46.964844 49.015625 46.488281 Z M 38.800781 40.792969 L 41.738281 33.582031 L 44.671875 40.792969 Z M 38.800781 40.792969 " fill-opacity="1" fill-rule="nonzero"/><path fill="#333333" d="M 41 20.460938 C 41.519531 20.460938 41.9375 20.042969 41.9375 19.527344 L 41.9375 10.296875 C 41.9375 8.132812 40.171875 6.371094 38 6.371094 L 27 6.371094 C 26.480469 6.371094 26.0625 6.789062 26.0625 7.304688 C 26.0625 7.820312 26.480469 8.242188 27 8.242188 L 38 8.242188 C 39.136719 8.242188 40.0625 9.164062 40.0625 10.296875 L 40.0625 19.527344 C 40.0625 20.042969 40.480469 20.460938 41 20.460938 Z M 41 20.460938 " fill-opacity="1" fill-rule="nonzero"/></svg>